<?xml version="1.0" encoding="UTF-8" standalone="no"?>
<!-- Created with Inkscape (http://www.inkscape.org/) -->

<svg
   xmlns:dc="http://purl.org/dc/elements/1.1/"
   xmlns:cc="http://creativecommons.org/ns#"
   xmlns:rdf="http://www.w3.org/1999/02/22-rdf-syntax-ns#"
   xmlns:svg="http://www.w3.org/2000/svg"
   xmlns="http://www.w3.org/2000/svg"
   xmlns:sodipodi="http://sodipodi.sourceforge.net/DTD/sodipodi-0.dtd"
   xmlns:inkscape="http://www.inkscape.org/namespaces/inkscape"
   width="2125.9841"
   height="1417.3228"
   id="svg2"
   version="1.1"
   inkscape:version="0.48.4 r9939"
   sodipodi:docname="RPWC2-05-LASMOUNT.svg">
  <defs
     id="defs4" />
  <sodipodi:namedview
     id="base"
     pagecolor="#ffffff"
     bordercolor="#666666"
     borderopacity="1.0"
     inkscape:pageopacity="0.0"
     inkscape:pageshadow="2"
     inkscape:zoom="0.35"
     inkscape:cx="937.11866"
     inkscape:cy="561.77411"
     inkscape:document-units="mm"
     inkscape:current-layer="layer1"
     showgrid="false"
     units="mm"
     inkscape:window-width="1151"
     inkscape:window-height="794"
     inkscape:window-x="1407"
     inkscape:window-y="34"
     inkscape:window-maximized="0" />
  <metadata
     id="metadata7">
    <rdf:RDF>
      <cc:Work
         rdf:about="">
        <dc:format>image/svg+xml</dc:format>
        <dc:type
           rdf:resource="http://purl.org/dc/dcmitype/StillImage" />
        <dc:title></dc:title>
      </cc:Work>
    </rdf:RDF>
  </metadata>
  <g
     inkscape:label="Layer 1"
     inkscape:groupmode="layer"
     id="layer1"
     transform="translate(0,364.96061)">
    <path
       style="fill:none;stroke:#000000;stroke-width:0.82204723;stroke-miterlimit:8.22993946;stroke-opacity:1"
       d="m 264.61365,-103.95407 425.19684,0 c 19.62992,0 35.43307,15.803151 35.43307,35.433071 l 0,141.73228 c 0,19.62992 -15.80315,35.433069 -35.43307,35.433069 l -425.19684,0 c -19.62992,0 -35.43307,-15.803149 -35.43307,-35.433069 l 0,-141.73228 c 0,-19.62992 15.80315,-35.433071 35.43307,-35.433071 z"
       id="rect2982"
       inkscape:connector-curvature="0" />
    <path
       id="path12493"
       style="fill:none;stroke:#ff0000;stroke-width:0.70866144;stroke-linecap:butt;stroke-linejoin:miter;stroke-miterlimit:8.22993946;stroke-opacity:1;stroke-dasharray:none"
       d="m 657.57902,-41.947989 -85.04,0 0,88.5825 85.04,0 0,-88.5825 z"
       inkscape:connector-curvature="0" />
    <path
       inkscape:connector-curvature="0"
       d="m 624.26822,-30.431739 c 1.9575,0 3.5426,-1.58625 3.5426,-3.5425 0,-1.95624 -1.5851,-3.54375 -3.5426,-3.54375 -1.9574,0 -3.5425,1.58751 -3.5425,3.54375 0,1.95625 1.5851,3.5425 3.5425,3.5425 z"
       style="fill:none;stroke:#373535;stroke-width:0.70866144;stroke-linecap:butt;stroke-linejoin:miter;stroke-miterlimit:8.22993946;stroke-opacity:1;stroke-dasharray:none"
       id="path12495" />
    <path
       inkscape:connector-curvature="0"
       d="m 624.26822,42.206261 c 1.9575,0 3.5426,-1.5875 3.5426,-3.5425 0,-1.9575 -1.5851,-3.545 -3.5426,-3.545 -1.9574,0 -3.5425,1.5875 -3.5425,3.545 0,1.955 1.5851,3.5425 3.5425,3.5425 z"
       style="fill:none;stroke:#373535;stroke-width:0.70866144;stroke-linecap:butt;stroke-linejoin:miter;stroke-miterlimit:8.22993946;stroke-opacity:1;stroke-dasharray:none"
       id="path12497" />
    <path
       inkscape:connector-curvature="0"
       d="m 579.97622,-30.431739 c 1.9575,0 3.545,-1.58625 3.545,-3.5425 0,-1.95624 -1.5875,-3.54375 -3.545,-3.54375 -1.955,0 -3.5425,1.58751 -3.5425,3.54375 0,1.95625 1.5875,3.5425 3.5425,3.5425 z"
       style="fill:none;stroke:#373535;stroke-width:0.70866144;stroke-linecap:butt;stroke-linejoin:miter;stroke-miterlimit:8.22993946;stroke-opacity:1;stroke-dasharray:none"
       id="path12499" />
    <path
       inkscape:connector-curvature="0"
       d="m 579.97622,42.206261 c 1.9575,0 3.545,-1.5875 3.545,-3.5425 0,-1.9575 -1.5875,-3.545 -3.545,-3.545 -1.955,0 -3.5425,1.5875 -3.5425,3.545 0,1.955 1.5875,3.5425 3.5425,3.5425 z"
       style="fill:none;stroke:#373535;stroke-width:0.70866144;stroke-linecap:butt;stroke-linejoin:miter;stroke-miterlimit:8.22993946;stroke-opacity:1;stroke-dasharray:none"
       id="path12501" />
    <path
       id="path12503"
       style="fill:none;stroke:#373535;stroke-width:0.76047122;stroke-linecap:butt;stroke-linejoin:miter;stroke-miterlimit:8.22993946;stroke-opacity:1;stroke-dasharray:none"
       d="m 637.35562,-12.865179 -30.4207,0 0,30.42063 30.4207,0 0,-30.42063 z"
       inkscape:connector-curvature="0" />
    <path
       inkscape:connector-curvature="0"
       d="m 627.64533,-86.237059 c 0,3.03764 -2.46211,5.49976 -5.50035,5.49976 -3.03771,0 -5.49977,-2.46212 -5.49977,-5.49976 0,-3.03765 2.46211,-5.50036 5.49977,-5.50036 3.03824,0 5.50035,2.46271 5.50035,5.50036 z"
       style="fill:none;stroke:#373535;stroke-width:0.33846992;stroke-linecap:butt;stroke-linejoin:miter;stroke-miterlimit:8.22993946;stroke-opacity:1;stroke-dasharray:none"
       id="path12531" />
    <path
       id="path12533"
       style="fill:none;stroke:#373535;stroke-width:0.33847004;stroke-linecap:butt;stroke-linejoin:miter;stroke-miterlimit:8.22993946;stroke-opacity:1;stroke-dasharray:none"
       d="m 627.64533,90.927931 c 0,3.03765 -2.46211,5.49976 -5.50035,5.49976 -3.03771,0 -5.49977,-2.46211 -5.49977,-5.49976 0,-3.03764 2.46211,-5.50035 5.49977,-5.50035 3.03824,0 5.50035,2.46271 5.50035,5.50035 z"
       inkscape:connector-curvature="0" />
    <g
       id="g3259"
       transform="translate(-486.96519,8.2117912)">
      <path
         id="path12547"
         style="fill:none;stroke:#373535;stroke-width:0.36449078;stroke-linecap:butt;stroke-linejoin:miter;stroke-miterlimit:8.22993946;stroke-opacity:1;stroke-dasharray:none"
         d="m 916.50486,153.5893 c 0,3.03046 -2.45628,5.48675 -5.48734,5.48675 -3.03052,0 -5.48676,-2.45629 -5.48676,-5.48675 0,-3.03046 2.45628,-5.48734 5.48676,-5.48734 3.03106,0 5.48734,2.45688 5.48734,5.48734 z"
         inkscape:connector-curvature="0" />
      <path
         inkscape:connector-curvature="0"
         d="m 916.50486,330.7543 c 0,3.03046 -2.45628,5.48675 -5.48734,5.48675 -3.03052,0 -5.48676,-2.45629 -5.48676,-5.48675 0,-3.03046 2.45628,-5.48734 5.48676,-5.48734 3.03106,0 5.48734,2.45688 5.48734,5.48734 z"
         style="fill:none;stroke:#373535;stroke-width:0.36449078;stroke-linecap:butt;stroke-linejoin:miter;stroke-miterlimit:8.22993946;stroke-opacity:1;stroke-dasharray:none"
         id="path12549" />
      <path
         sodipodi:nodetypes="sscccscccssscccscccsscccscccccccccccccccccccccccccccsccccccccccccccccccscccccccccccccccccsccccccccccscccccccccccccsccsccccccccccccccsccccccccccccccccccccccccccccccccccccscccccccccccccccccccccccccccccccccccccccccccccccc"
         id="path12551"
         d="m 911.02796,137.63222 c -19.6295,0 -35.4374,12.26428 -35.4374,31.8942 l 0,5.5625 0,1.52635 0,0.68975 c -22.9422,12.55018 -38.5002,36.87963 -38.5,64.875 0,27.99537 15.5579,52.32482 38.5,64.875 l 0,0.6585 0,2.02635 0,5.0625 c 0,19.62992 15.8075,31.8942 35.4374,31.8942 19.6302,0 35.4376,-12.26428 35.4376,-31.8942 l 0,-5.0625 0,-2.02635 0,-0.62725 c 22.9467,-12.55096 38.5,-36.90658 38.5,-64.90625 0,-27.99939 -15.5533,-52.35635 -38.5,-64.90625 l 0,-0.6585 0,-1.52635 0,-5.5625 c 0,-19.62992 -15.8075,-31.8942 -35.4376,-31.8942 z m 0,48.76655 c 6.3316,0 12.39,1.05633 18.0626,3 0.062,0.0213 0.1254,0.041 0.1874,0.0625 0.6212,0.21525 1.233,0.45115 1.8438,0.6875 0.6724,0.26019 1.3405,0.52729 2,0.8125 0.6601,0.28534 1.3222,0.59642 1.9688,0.90625 0.029,0.0141 0.064,0.0172 0.094,0.0312 0.1827,0.0879 0.3497,0.19138 0.5313,0.28125 0.6349,0.31438 1.2536,0.63116 1.875,0.96875 0.4278,0.23259 0.8601,0.47537 1.2812,0.71875 0.2622,0.15147 0.5219,0.31315 0.7812,0.46875 0.3516,0.2109 0.7159,0.40663 1.0626,0.625 0.4191,0.26417 0.8382,0.53757 1.25,0.8125 0.176,0.11781 0.3564,0.224 0.5312,0.34375 1.1751,0.80416 2.2983,1.67311 3.4062,2.5625 0.2824,0.2268 0.5661,0.45536 0.8438,0.6875 0.5046,0.42184 1.0107,0.84212 1.5,1.28125 0.2967,0.26632 0.5841,0.53996 0.875,0.8125 0.1131,0.10586 0.2314,0.20571 0.3438,0.3125 0.4009,0.38187 0.798,0.7627 1.1874,1.15625 0.5036,0.50811 0.9851,1.03543 1.4688,1.5625 0.3744,0.40827 0.7314,0.83068 1.0938,1.25 0.1637,0.18949 0.3386,0.37079 0.5,0.5625 0.3939,0.46874 0.7775,0.92453 1.1562,1.40625 0.1202,0.15271 0.2251,0.31476 0.3438,0.46875 0.3181,0.41301 0.6307,0.82793 0.9374,1.25 0.8359,1.14967 1.6276,2.31761 2.375,3.53125 0.06,0.0966 0.1285,0.18422 0.1876,0.28125 0.3114,0.51328 0.6108,1.03853 0.9062,1.5625 0.041,0.073 0.084,0.14557 0.125,0.21875 0.3086,0.55277 0.5848,1.12334 0.875,1.6875 0.2352,0.45754 0.4647,0.91022 0.6875,1.375 0.3236,0.67507 0.6406,1.37271 0.9375,2.0625 0.064,0.14782 0.1563,0.28902 0.2188,0.4375 0.029,0.0695 0.034,0.14914 0.062,0.21875 0.2511,0.60378 0.4888,1.19822 0.7188,1.8125 0.2237,0.59719 0.4214,1.2058 0.625,1.8125 0.025,0.0758 0.069,0.14285 0.094,0.21875 0.1032,0.31278 0.2145,0.62229 0.3124,0.9375 0.06,0.19397 0.098,0.39888 0.1563,0.59375 0.1513,0.50612 0.3003,1.0192 0.4375,1.53125 0.072,0.26998 0.1503,0.54092 0.2188,0.8125 0.089,0.35316 0.1677,0.7067 0.25,1.0625 0.1104,0.47939 0.2144,0.95347 0.3124,1.4375 0.1468,0.72167 0.2879,1.42475 0.4063,2.15625 0.099,0.61177 0.1709,1.22548 0.25,1.84375 0.027,0.20969 0.069,0.41459 0.094,0.625 0.072,0.6214 0.1357,1.24754 0.1876,1.875 0.012,0.14493 0.02,0.29226 0.031,0.4375 0.039,0.52089 0.069,1.03772 0.094,1.5625 0.041,0.88234 0.062,1.76365 0.062,2.65625 0,0.8926 -0.021,1.77397 -0.062,2.65625 -0.022,0.47249 -0.06,0.93692 -0.094,1.40625 -0.016,0.22082 -0.044,0.43615 -0.062,0.65625 -0.048,0.57544 -0.091,1.14842 -0.1563,1.71875 -0.031,0.26951 -0.059,0.54418 -0.094,0.8125 -0.076,0.58435 -0.1561,1.17148 -0.25,1.75 -0.1819,1.12341 -0.4081,2.21274 -0.6563,3.3125 -0.1025,0.45544 -0.1986,0.92386 -0.3124,1.375 -0.058,0.22988 -0.1266,0.45877 -0.1876,0.6875 -0.1563,0.58798 -0.3248,1.16986 -0.5,1.75 -0.1205,0.40055 -0.2453,0.79082 -0.375,1.1875 -0.058,0.17858 -0.1275,0.35347 -0.1874,0.53125 -0.1828,0.54038 -0.364,1.09221 -0.5626,1.625 -0.2783,0.74639 -0.5657,1.48789 -0.875,2.21875 -0.3523,0.8333 -0.7338,1.65678 -1.125,2.46875 -0.2635,0.54739 -0.5316,1.08773 -0.8124,1.625 -0.2334,0.44622 -0.4741,0.8735 -0.7188,1.3125 -0.1451,0.26013 -0.2884,0.52371 -0.4375,0.78125 -0.2546,0.43976 -0.5151,0.88046 -0.7813,1.3125 -0.3748,0.60875 -0.7588,1.21955 -1.1562,1.8125 -0.3405,0.50799 -0.6748,1.00401 -1.0312,1.5 -0.1142,0.1585 -0.2282,0.3115 -0.3438,0.46875 -0.2566,0.34944 -0.5169,0.68809 -0.7812,1.03125 -0.185,0.23969 -0.3738,0.48218 -0.5626,0.71875 -0.3267,0.40996 -0.6619,0.81834 -1,1.21875 -0.1425,0.16903 -0.2929,0.3327 -0.4374,0.5 -0.3046,0.35222 -0.5931,0.71807 -0.9063,1.0625 -0.5356,0.58922 -1.0961,1.15297 -1.6563,1.71875 -0.498,0.5032 -1.0143,0.98471 -1.5312,1.46875 -0.4629,0.43348 -0.9289,0.86358 -1.4062,1.28125 -0.4051,0.35435 -0.8035,0.71981 -1.2188,1.0625 -0.7392,0.60976 -1.4795,1.17833 -2.25,1.75 -0.5741,0.42639 -1.1593,0.84545 -1.75,1.25 -0.5822,0.39871 -1.1835,0.77934 -1.7812,1.15625 -0.261,0.16444 -0.5176,0.33978 -0.7813,0.5 -0.3476,0.21097 -0.71,0.42147 -1.0625,0.625 -0.4228,0.24428 -0.8517,0.48534 -1.2812,0.71875 -0.1969,0.10682 -0.3955,0.20799 -0.5938,0.3125 -0.598,0.31554 -1.2019,0.61206 -1.8125,0.90625 -0.034,0.0163 -0.06,0.0463 -0.094,0.0625 -0.5749,0.2755 -1.1648,0.52506 -1.75,0.78125 -0.073,0.0318 -0.1459,0.0624 -0.2188,0.0937 -0.6595,0.28521 -1.3276,0.55231 -2,0.8125 -0.6108,0.23635 -1.2227,0.47225 -1.8438,0.6875 -0.062,0.0216 -0.1253,0.0412 -0.1874,0.0625 -5.6726,1.94367 -11.731,3 -18.0626,3 -6.3315,0 -12.4212,-1.05633 -18.0937,-3 -0.062,-0.0213 -0.1253,-0.0409 -0.1875,-0.0625 -0.6209,-0.21525 -1.2329,-0.45115 -1.8438,-0.6875 -0.6721,-0.26019 -1.3405,-0.52729 -2,-0.8125 -0.6902,-0.29841 -1.387,-0.61235 -2.0624,-0.9375 -0.337,-0.16231 -0.6671,-0.33116 -1,-0.5 -0.3397,-0.17204 -0.6646,-0.35251 -1,-0.53125 -0.5681,-0.30263 -1.1314,-0.61601 -1.6876,-0.9375 -0.6201,-0.35862 -1.2388,-0.71222 -1.8437,-1.09375 -0.4943,-0.31142 -0.9852,-0.61116 -1.4687,-0.9375 -0.086,-0.0582 -0.1643,-0.1288 -0.25,-0.1875 -0.1368,-0.0933 -0.2706,-0.18677 -0.4063,-0.28125 -0.4643,-0.32347 -0.9212,-0.66292 -1.375,-1 -0.048,-0.0358 -0.1079,-0.0579 -0.1563,-0.0937 -0.5199,-0.38879 -1.0255,-0.81246 -1.5312,-1.21875 -0.4285,-0.34426 -0.8633,-0.67473 -1.2812,-1.03125 -0.3037,-0.25868 -0.6085,-0.51623 -0.9063,-0.78125 -0.3423,-0.30496 -0.6653,-0.62431 -1,-0.9375 -0.054,-0.0504 -0.1025,-0.10567 -0.1563,-0.15625 -0.4289,-0.40472 -0.8651,-0.80074 -1.2812,-1.21875 -0.5992,-0.60131 -1.1786,-1.21574 -1.75,-1.84375 -0.418,-0.45981 -0.8474,-0.93262 -1.25,-1.40625 -0.072,-0.0841 -0.1477,-0.16551 -0.2188,-0.25 -0.3073,-0.36615 -0.608,-0.75092 -0.9062,-1.125 -0.1899,-0.23828 -0.3764,-0.47731 -0.5625,-0.71875 -0.2367,-0.30704 -0.4571,-0.62543 -0.6875,-0.9375 -0.359,-0.48642 -0.7191,-0.97042 -1.0625,-1.46875 -0.1159,-0.16828 -0.2297,-0.33039 -0.3437,-0.5 -0.1796,-0.26657 -0.3564,-0.54269 -0.5313,-0.8125 -0.232,-0.35793 -0.4636,-0.73022 -0.6875,-1.09375 -0.059,-0.0955 -0.1292,-0.18539 -0.1875,-0.28125 -0.2052,-0.33763 -0.3957,-0.68897 -0.5937,-1.03125 -0.1499,-0.2586 -0.2919,-0.52005 -0.4376,-0.78125 -0.2426,-0.43528 -0.4874,-0.87014 -0.7187,-1.3125 -0.2787,-0.53338 -0.5507,-1.08164 -0.8125,-1.625 -0.3912,-0.81188 -0.7726,-1.63557 -1.125,-2.46875 -0.018,-0.0427 -0.045,-0.0823 -0.062,-0.125 -0.2912,-0.69328 -0.5489,-1.38654 -0.8125,-2.09375 -0.1999,-0.5358 -0.3787,-1.08155 -0.5625,-1.625 -0.06,-0.17757 -0.1292,-0.35289 -0.1875,-0.53125 -0.1292,-0.39525 -0.2545,-0.78842 -0.375,-1.1875 -0.175,-0.58002 -0.3436,-1.16217 -0.5,-1.75 -0.061,-0.23003 -0.1291,-0.45631 -0.1875,-0.6875 -0.1145,-0.45353 -0.2092,-0.91712 -0.3125,-1.375 -0.086,-0.38242 -0.1716,-0.7709 -0.25,-1.15625 -0.1466,-0.72126 -0.2879,-1.45639 -0.4062,-2.1875 -0.095,-0.58855 -0.1734,-1.18668 -0.25,-1.78125 -0.032,-0.25018 -0.065,-0.49879 -0.094,-0.75 -0.066,-0.57033 -0.1079,-1.14331 -0.1562,-1.71875 -0.018,-0.21865 -0.047,-0.43688 -0.063,-0.65625 -0.034,-0.47096 -0.071,-0.93212 -0.094,-1.40625 -0.041,-0.88193 -0.062,-1.76403 -0.062,-2.65625 0,-0.89222 0.022,-1.77426 0.062,-2.65625 0.024,-0.52171 0.055,-1.04463 0.094,-1.5625 0.011,-0.14572 0.019,-0.29209 0.031,-0.4375 0.052,-0.62746 0.1151,-1.2536 0.1875,-1.875 0.024,-0.20838 0.067,-0.41733 0.094,-0.625 0.079,-0.61827 0.1505,-1.23198 0.25,-1.84375 0.1183,-0.73127 0.2596,-1.43479 0.4062,-2.15625 0.098,-0.48403 0.2018,-0.95811 0.3125,-1.4375 0.082,-0.35402 0.1615,-0.71109 0.25,-1.0625 0.069,-0.27231 0.1462,-0.5418 0.2187,-0.8125 0.1294,-0.4819 0.2647,-0.96083 0.4063,-1.4375 0.1586,-0.53405 0.3259,-1.06653 0.5,-1.59375 0.2286,-0.69247 0.4641,-1.38233 0.7187,-2.0625 0.2734,-0.72914 0.5414,-1.44194 0.8438,-2.15625 0.089,-0.21069 0.1896,-0.41565 0.2812,-0.625 0.2209,-0.50375 0.4526,-1.00415 0.6876,-1.5 0.2598,-0.54887 0.5353,-1.08615 0.8124,-1.625 0.3246,-0.6308 0.6527,-1.25846 1,-1.875 0.3507,-0.62201 0.7203,-1.23684 1.0938,-1.84375 0.3857,-0.62644 0.7781,-1.26528 1.1875,-1.875 0.3855,-0.57398 0.7815,-1.1289 1.1875,-1.6875 0.4173,-0.57423 0.8428,-1.1301 1.2812,-1.6875 0.2702,-0.34344 0.5346,-0.69438 0.8126,-1.03125 0.1024,-0.12437 0.2087,-0.25153 0.3124,-0.375 0.4748,-0.56549 0.9724,-1.1102 1.4688,-1.65625 0.055,-0.0601 0.1013,-0.12762 0.1562,-0.1875 0.5288,-0.57638 1.0732,-1.1338 1.625,-1.6875 0.073,-0.0731 0.1456,-0.1461 0.2188,-0.21875 0.58,-0.5754 1.1765,-1.13785 1.7812,-1.6875 0.3136,-0.28478 0.6176,-0.56607 0.9376,-0.84375 0.171,-0.14864 0.3582,-0.29092 0.5312,-0.4375 0.3334,-0.28231 0.66,-0.5692 1,-0.84375 0.5402,-0.43665 1.0999,-0.86463 1.6562,-1.28125 0.053,-0.0398 0.103,-0.0854 0.1563,-0.125 0.6001,-0.44591 1.1942,-0.85923 1.8125,-1.28125 0.1987,-0.13561 0.3931,-0.27315 0.5938,-0.40625 0.5756,-0.38225 1.1594,-0.76384 1.75,-1.125 0.3888,-0.2377 0.7923,-0.45914 1.1874,-0.6875 0.2263,-0.13073 0.4594,-0.24736 0.6876,-0.375 0.3526,-0.19733 0.705,-0.40392 1.0624,-0.59375 0.1652,-0.0877 0.3342,-0.16395 0.5,-0.25 0.5072,-0.26271 1.0154,-0.53379 1.5313,-0.78125 0.6464,-0.31004 1.3088,-0.62068 1.9687,-0.90625 0.6596,-0.28521 1.3278,-0.55231 2,-0.8125 0.6109,-0.23635 1.2229,-0.47225 1.8438,-0.6875 0.062,-0.0216 0.125,-0.0411 0.1875,-0.0625 5.6725,-1.94367 11.7622,-3 18.0937,-3 z"
         style="fill:none;stroke:#000000;stroke-width:0.82204723;stroke-miterlimit:8.22993946;stroke-opacity:1;stroke-dasharray:none"
         inkscape:connector-curvature="0" />
    </g>
    <g
       id="g3251"
       transform="translate(-372.33254,139.63325)">
      <path
         id="path12491"
         d="m 993.38513,66.376453 c -4.4494,0 -8.0312,3.61627 -8.0312,8.0625 0,2.42939 1.0795,4.58616 2.7812,6.0625 -15.4194,1.55711 -27.4374,14.50654 -27.4374,30.249997 -10e-5,15.73269 12.0019,28.67839 27.4062,30.25 -1.6854,1.47673 -2.75,3.64542 -2.75,6.0625 0,4.44268 3.5818,8.0625 8.0312,8.0625 4.4499,0 8.06247,-3.61982 8.06257,-8.0625 0,-2.76409 -1.379,-5.20523 -3.49997,-6.65625 13.67987,-3.02683 23.90617,-15.14164 23.90617,-29.65625 0,-14.514607 -10.2263,-26.660667 -23.90617,-29.687497 2.12097,-1.45018 3.49987,-3.86223 3.49997,-6.625 0,-4.44623 -3.61267,-8.0625 -8.06257,-8.0625 z"
         style="fill:none;stroke:#000000;stroke-width:0.70866138;stroke-miterlimit:8.22993946;stroke-opacity:1;stroke-dasharray:none"
         inkscape:connector-curvature="0" />
      <path
         transform="matrix(2.6027529,0,0,2.6025138,-2935.1617,-1748.6638)"
         style="fill:none;stroke:#f80000;stroke-width:0.2722863;stroke-miterlimit:8.22993946;stroke-opacity:1"
         d="m 1530,714.46564 c 0,11.83467 -9.5939,21.42857 -21.4286,21.42857 -11.8347,0 -21.4286,-9.5939 -21.4286,-21.42857 0,-11.83468 9.5939,-21.42857 21.4286,-21.42857 11.8347,0 21.4286,9.59389 21.4286,21.42857 z"
         id="path12523"
         inkscape:connector-curvature="0" />
      <path
         inkscape:connector-curvature="0"
         d="m 996.77702,22.160738 c 0,3.037642 -2.46209,5.499757 -5.50034,5.499757 -3.03771,0 -5.49977,-2.462115 -5.49977,-5.499757 0,-3.037647 2.46211,-5.500357 5.49977,-5.500357 3.03825,0 5.50034,2.46271 5.50034,5.500357 z"
         style="fill:none;stroke:#373535;stroke-width:0.33847022;stroke-linecap:butt;stroke-linejoin:miter;stroke-miterlimit:8.22993946;stroke-opacity:1;stroke-dasharray:none"
         id="path12541" />
      <path
         id="path12543"
         style="fill:none;stroke:#373535;stroke-width:0.33847022;stroke-linecap:butt;stroke-linejoin:miter;stroke-miterlimit:8.22993946;stroke-opacity:1;stroke-dasharray:none"
         d="m 996.77702,199.32573 c 0,3.03765 -2.46209,5.49976 -5.50034,5.49976 -3.03771,0 -5.49977,-2.46211 -5.49977,-5.49976 0,-3.03764 2.46211,-5.50035 5.49977,-5.50035 3.03825,0 5.50034,2.46271 5.50034,5.50035 z"
         inkscape:connector-curvature="0" />
      <path
         inkscape:connector-curvature="0"
         d="m 949.10633,82.475873 c 4.4484,0 8.0559,-3.60528 8.0559,-8.05151 0,-4.44623 -3.6075,-8.05436 -8.0559,-8.05436 -4.4427,0 -8.0502,3.60813 -8.0502,8.05436 0,4.44623 3.6075,8.05151 8.0502,8.05151 z"
         style="fill:none;stroke:#373535;stroke-width:0.70866144;stroke-linecap:butt;stroke-linejoin:miter;stroke-miterlimit:8.22993946;stroke-opacity:1;stroke-dasharray:none"
         id="path12573" />
      <path
         inkscape:connector-curvature="0"
         d="m 949.10633,155.11337 c 4.4484,0 8.0559,-3.60754 8.0559,-8.05022 0,-4.44836 -3.6075,-8.0559 -8.0559,-8.0559 -4.4427,0 -8.0502,3.60754 -8.0502,8.0559 0,4.44268 3.6075,8.05022 8.0502,8.05022 z"
         style="fill:none;stroke:#373535;stroke-width:0.70866144;stroke-linecap:butt;stroke-linejoin:miter;stroke-miterlimit:8.22993946;stroke-opacity:1;stroke-dasharray:none"
         id="path12575" />
    </g>
    <path
       style="fill:none;stroke:#000000;stroke-width:0.82204723;stroke-miterlimit:8.22993946;stroke-opacity:1"
       d="m 548.07823,144.07697 141.73228,0 c 19.62992,0 35.43307,15.80315 35.43307,35.43307 l 0,141.73228 c 0,19.62992 -15.80315,35.43307 -35.43307,35.43307 l -141.73228,0 c -19.62992,0 -35.43307,-15.80315 -35.43307,-35.43307 l 0,-141.73228 c 0,-19.62992 15.80315,-35.43307 35.43307,-35.43307 z"
       id="rect3249"
       inkscape:connector-curvature="0" />
    <path
       style="fill:none;stroke:#ff0000;stroke-width:1px;stroke-linecap:butt;stroke-linejoin:miter;stroke-opacity:1"
       d="m 512.55659,-111.77103 0,224.68904"
       id="path3264"
       inkscape:connector-curvature="0"
       sodipodi:nodetypes="cc" />
    <g
       id="g4046"
       transform="translate(60.609153,-208.21016)">
      <path
         transform="matrix(1.7703306,0,0,1.7703306,-51.833727,-617.7968)"
         style="fill:none;stroke:#ff0000;stroke-width:0.40029892;stroke-miterlimit:8.22993946;stroke-opacity:1"
         d="m 155.56349,427.87833 c 0,5.29997 -4.29648,9.59645 -9.59645,9.59645 -5.29997,0 -9.59645,-4.29648 -9.59645,-9.59645 0,-5.29998 4.29648,-9.59645 9.59645,-9.59645 5.29997,0 9.59645,4.29647 9.59645,9.59645 z"
         id="path4034"
         inkscape:connector-curvature="0" />
      <path
         transform="matrix(1.7703306,0,0,1.7703306,-51.833727,-476.0648)"
         style="fill:none;stroke:#ff0000;stroke-width:0.40029892;stroke-miterlimit:8.22993946;stroke-opacity:1"
         d="m 155.56349,427.87833 c 0,5.29997 -4.29648,9.59645 -9.59645,9.59645 -5.29997,0 -9.59645,-4.29648 -9.59645,-9.59645 0,-5.29998 4.29648,-9.59645 9.59645,-9.59645 5.29997,0 9.59645,4.29647 9.59645,9.59645 z"
         id="path4036"
         inkscape:connector-curvature="0" />
      <path
         transform="matrix(1.7703306,0,0,1.7703306,19.032273,-617.7968)"
         style="fill:none;stroke:#ff0000;stroke-width:0.40029892;stroke-miterlimit:8.22993946;stroke-opacity:1"
         d="m 155.56349,427.87833 c 0,5.29997 -4.29648,9.59645 -9.59645,9.59645 -5.29997,0 -9.59645,-4.29648 -9.59645,-9.59645 0,-5.29998 4.29648,-9.59645 9.59645,-9.59645 5.29997,0 9.59645,4.29647 9.59645,9.59645 z"
         id="path4038"
         inkscape:connector-curvature="0" />
      <path
         transform="matrix(1.7703306,0,0,1.7703306,19.032273,-476.0648)"
         style="fill:none;stroke:#ff0000;stroke-width:0.40029892;stroke-miterlimit:8.22993946;stroke-opacity:1"
         d="m 155.56349,427.87833 c 0,5.29997 -4.29648,9.59645 -9.59645,9.59645 -5.29997,0 -9.59645,-4.29648 -9.59645,-9.59645 0,-5.29998 4.29648,-9.59645 9.59645,-9.59645 5.29997,0 9.59645,4.29647 9.59645,9.59645 z"
         id="path4040"
         inkscape:connector-curvature="0" />
      <path
         transform="matrix(1.7703306,0,0,1.7703306,89.898273,-617.7968)"
         style="fill:none;stroke:#ff0000;stroke-width:0.40029892;stroke-miterlimit:8.22993946;stroke-opacity:1"
         d="m 155.56349,427.87833 c 0,5.29997 -4.29648,9.59645 -9.59645,9.59645 -5.29997,0 -9.59645,-4.29648 -9.59645,-9.59645 0,-5.29998 4.29648,-9.59645 9.59645,-9.59645 5.29997,0 9.59645,4.29647 9.59645,9.59645 z"
         id="path4042"
         inkscape:connector-curvature="0" />
      <path
         transform="matrix(1.7703306,0,0,1.7703306,89.898273,-476.0648)"
         style="fill:none;stroke:#ff0000;stroke-width:0.40029892;stroke-miterlimit:8.22993946;stroke-opacity:1"
         d="m 155.56349,427.87833 c 0,5.29997 -4.29648,9.59645 -9.59645,9.59645 -5.29997,0 -9.59645,-4.29648 -9.59645,-9.59645 0,-5.29998 4.29648,-9.59645 9.59645,-9.59645 5.29997,0 9.59645,4.29647 9.59645,9.59645 z"
         id="path4044"
         inkscape:connector-curvature="0" />
    </g>
    <path
       id="path4056"
       style="fill:none;stroke:#373535;stroke-width:0.36449078;stroke-linecap:butt;stroke-linejoin:miter;stroke-miterlimit:8.22993946;stroke-opacity:1;stroke-dasharray:none"
       d="m 273.63447,161.80109 c 0,3.03046 -2.45628,5.48675 -5.48734,5.48675 -3.03052,0 -5.48676,-2.45629 -5.48676,-5.48675 0,-3.03046 2.45628,-5.48734 5.48676,-5.48734 3.03106,0 5.48734,2.45688 5.48734,5.48734 z"
       inkscape:connector-curvature="0" />
    <path
       inkscape:connector-curvature="0"
       d="m 273.63447,338.96609 c 0,3.03046 -2.45628,5.48675 -5.48734,5.48675 -3.03052,0 -5.48676,-2.45629 -5.48676,-5.48675 0,-3.03046 2.45628,-5.48734 5.48676,-5.48734 3.03106,0 5.48734,2.45688 5.48734,5.48734 z"
       style="fill:none;stroke:#373535;stroke-width:0.36449078;stroke-linecap:butt;stroke-linejoin:miter;stroke-miterlimit:8.22993946;stroke-opacity:1;stroke-dasharray:none"
       id="path4058" />
    <path
       style="fill:none;stroke:#000000;stroke-width:0.82204723;stroke-miterlimit:8.22993946;stroke-opacity:1;stroke-dasharray:none"
       d="m 268.15757,145.84401 c -19.6295,0 -35.4374,12.26428 -35.4374,31.8942 l 0,5.5625 0,1.52635 0,0.68975 c -22.9422,12.55018 -38.5002,36.87963 -38.5,64.875 0,27.99537 15.5579,52.32482 38.5,64.875 l 0,0.6585 0,2.02635 0,5.0625 c 0,19.62992 15.8075,31.8942 35.4374,31.8942 19.6302,0 35.4376,-12.26428 35.4376,-31.8942 l 0,-5.0625 0,-2.02635 0,-0.62725 c 22.9467,-12.55096 38.5,-36.90658 38.5,-64.90625 0,-27.99939 -15.5533,-52.35635 -38.5,-64.90625 l 0,-0.6585 0,-1.52635 0,-5.5625 c 0,-19.62992 -15.8075,-31.8942 -35.4376,-31.8942 z"
       id="path4067"
       inkscape:connector-curvature="0" />
    <g
       id="g4302"
       transform="translate(395.9798,26.263966)">
      <path
         inkscape:connector-curvature="0"
         d="m 982.03606,180.34223 c 0,5.87 -4.75875,10.63 -10.63,10.63 -5.87,0 -10.63,-4.76 -10.63,-10.63 0,-5.87125 4.76,-10.63 10.63,-10.63 5.87125,0 10.63,4.75875 10.63,10.63 z"
         style="fill:none;stroke:#373535;stroke-width:0.70866144;stroke-linecap:butt;stroke-linejoin:miter;stroke-miterlimit:8.22993946;stroke-opacity:1;stroke-dasharray:none"
         id="path9958" />
      <path
         inkscape:connector-curvature="0"
         d="m 982.03606,251.20885 c 0,5.87125 -4.75875,10.63 -10.63,10.63 -5.87,0 -10.63,-4.75875 -10.63,-10.63 0,-5.87125 4.76,-10.63 10.63,-10.63 5.87125,0 10.63,4.75875 10.63,10.63 z"
         style="fill:none;stroke:#373535;stroke-width:0.70866144;stroke-linecap:butt;stroke-linejoin:miter;stroke-miterlimit:8.22993946;stroke-opacity:1;stroke-dasharray:none"
         id="path9962" />
      <path
         inkscape:connector-curvature="0"
         d="m 1336.3672,180.34223 c 0,5.87 -4.7587,10.63 -10.63,10.63 -5.87,0 -10.63,-4.76 -10.63,-10.63 0,-5.87125 4.76,-10.63 10.63,-10.63 5.8713,0 10.63,4.75875 10.63,10.63 z"
         style="fill:none;stroke:#373535;stroke-width:0.70866144;stroke-linecap:butt;stroke-linejoin:miter;stroke-miterlimit:8.22993946;stroke-opacity:1;stroke-dasharray:none"
         id="path9966" />
      <path
         inkscape:connector-curvature="0"
         d="m 982.03606,463.81147 c 0,5.87125 -4.75875,10.63 -10.63,10.63 -5.87,0 -10.63,-4.75875 -10.63,-10.63 0,-5.87125 4.76,-10.63 10.63,-10.63 5.87125,0 10.63,4.75875 10.63,10.63 z"
         style="fill:none;stroke:#373535;stroke-width:0.70866144;stroke-linecap:butt;stroke-linejoin:miter;stroke-miterlimit:8.22993946;stroke-opacity:1;stroke-dasharray:none"
         id="path9970" />
      <path
         inkscape:connector-curvature="0"
         d="m 1336.3672,463.81147 c 0,5.87125 -4.7587,10.63 -10.63,10.63 -5.87,0 -10.63,-4.75875 -10.63,-10.63 0,-5.87125 4.76,-10.63 10.63,-10.63 5.8713,0 10.63,4.75875 10.63,10.63 z"
         style="fill:none;stroke:#373535;stroke-width:0.70866144;stroke-linecap:butt;stroke-linejoin:miter;stroke-miterlimit:8.22993946;stroke-opacity:1;stroke-dasharray:none"
         id="path9974" />
      <path
         inkscape:connector-curvature="0"
         d="m 1265.5004,463.81147 c 0,5.87125 -4.7587,10.63 -10.63,10.63 -5.87,0 -10.63,-4.75875 -10.63,-10.63 0,-5.87125 4.76,-10.63 10.63,-10.63 5.8713,0 10.63,4.75875 10.63,10.63 z"
         style="fill:none;stroke:#373535;stroke-width:0.70866144;stroke-linecap:butt;stroke-linejoin:miter;stroke-miterlimit:8.22993946;stroke-opacity:1;stroke-dasharray:none"
         id="path9978" />
      <path
         inkscape:connector-curvature="0"
         d="m 1194.6337,463.81147 c 0,5.87125 -4.7588,10.63 -10.63,10.63 -5.87,0 -10.63,-4.75875 -10.63,-10.63 0,-5.87125 4.76,-10.63 10.63,-10.63 5.8712,0 10.63,4.75875 10.63,10.63 z"
         style="fill:none;stroke:#373535;stroke-width:0.70866144;stroke-linecap:butt;stroke-linejoin:miter;stroke-miterlimit:8.22993946;stroke-opacity:1;stroke-dasharray:none"
         id="path9982" />
      <path
         inkscape:connector-curvature="0"
         d="m 1123.7671,463.81147 c 0,5.87125 -4.7588,10.63 -10.63,10.63 -5.87,0 -10.63,-4.75875 -10.63,-10.63 0,-5.87125 4.76,-10.63 10.63,-10.63 5.8712,0 10.63,4.75875 10.63,10.63 z"
         style="fill:none;stroke:#373535;stroke-width:0.70866144;stroke-linecap:butt;stroke-linejoin:miter;stroke-miterlimit:8.22993946;stroke-opacity:1;stroke-dasharray:none"
         id="path9986" />
      <path
         inkscape:connector-curvature="0"
         d="m 1052.9003,463.81147 c 0,5.87125 -4.7587,10.63 -10.63,10.63 -5.87,0 -10.63,-4.75875 -10.63,-10.63 0,-5.87125 4.76,-10.63 10.63,-10.63 5.8713,0 10.63,4.75875 10.63,10.63 z"
         style="fill:none;stroke:#373535;stroke-width:0.70866144;stroke-linecap:butt;stroke-linejoin:miter;stroke-miterlimit:8.22993946;stroke-opacity:1;stroke-dasharray:none"
         id="path9990" />
      <path
         inkscape:connector-curvature="0"
         d="m 1336.3672,392.94473 c 0,5.87125 -4.7587,10.63 -10.63,10.63 -5.87,0 -10.63,-4.75875 -10.63,-10.63 0,-5.87125 4.76,-10.63 10.63,-10.63 5.8713,0 10.63,4.75875 10.63,10.63 z"
         style="fill:none;stroke:#373535;stroke-width:0.70866144;stroke-linecap:butt;stroke-linejoin:miter;stroke-miterlimit:8.22993946;stroke-opacity:1;stroke-dasharray:none"
         id="path9994" />
      <path
         inkscape:connector-curvature="0"
         d="m 1336.3672,322.0781 c 0,5.87125 -4.7587,10.63 -10.63,10.63 -5.87,0 -10.63,-4.75875 -10.63,-10.63 0,-5.87125 4.76,-10.63 10.63,-10.63 5.8713,0 10.63,4.75875 10.63,10.63 z"
         style="fill:none;stroke:#373535;stroke-width:0.70866144;stroke-linecap:butt;stroke-linejoin:miter;stroke-miterlimit:8.22993946;stroke-opacity:1;stroke-dasharray:none"
         id="path9998" />
      <path
         inkscape:connector-curvature="0"
         d="m 1336.3672,251.21135 c 0,5.87125 -4.7587,10.63 -10.63,10.63 -5.87,0 -10.63,-4.75875 -10.63,-10.63 0,-5.87125 4.76,-10.63 10.63,-10.63 5.8713,0 10.63,4.75875 10.63,10.63 z"
         style="fill:none;stroke:#373535;stroke-width:0.70866144;stroke-linecap:butt;stroke-linejoin:miter;stroke-miterlimit:8.22993946;stroke-opacity:1;stroke-dasharray:none"
         id="path10002" />
      <path
         id="path10004"
         style="fill:none;stroke:#373535;stroke-width:0.70866144;stroke-linecap:butt;stroke-linejoin:miter;stroke-miterlimit:8.22993946;stroke-opacity:1;stroke-dasharray:none"
         d="m 1017.4693,470.0131 -21.26124,0 0,-12.4025 21.26124,0 0,12.4025 z"
         inkscape:connector-curvature="0" />
      <path
         id="path10006"
         style="fill:none;stroke:#373535;stroke-width:0.70866144;stroke-linecap:butt;stroke-linejoin:miter;stroke-miterlimit:8.22993946;stroke-opacity:1;stroke-dasharray:none"
         d="m 1088.3356,470.0131 -21.2613,0 0,-12.4025 21.2613,0 0,12.4025 z"
         inkscape:connector-curvature="0" />
      <path
         id="path10008"
         style="fill:none;stroke:#373535;stroke-width:0.70866144;stroke-linecap:butt;stroke-linejoin:miter;stroke-miterlimit:8.22993946;stroke-opacity:1;stroke-dasharray:none"
         d="m 1159.2031,470.0131 -21.2613,0 0,-12.4025 21.2613,0 0,12.4025 z"
         inkscape:connector-curvature="0" />
      <path
         id="path10010"
         style="fill:none;stroke:#373535;stroke-width:0.70866144;stroke-linecap:butt;stroke-linejoin:miter;stroke-miterlimit:8.22993946;stroke-opacity:1;stroke-dasharray:none"
         d="m 1230.0693,470.0131 -21.2612,0 0,-12.4025 21.2612,0 0,12.4025 z"
         inkscape:connector-curvature="0" />
      <path
         id="path10012"
         style="fill:none;stroke:#373535;stroke-width:0.70866144;stroke-linecap:butt;stroke-linejoin:miter;stroke-miterlimit:8.22993946;stroke-opacity:1;stroke-dasharray:none"
         d="m 1300.9368,470.0131 -21.2612,0 0,-12.4025 21.2612,0 0,12.4025 z"
         inkscape:connector-curvature="0" />
      <path
         sodipodi:nodetypes="ccccc"
         id="path10014"
         style="fill:none;stroke:#373535;stroke-width:0.70866144;stroke-linecap:butt;stroke-linejoin:miter;stroke-miterlimit:8.22993946;stroke-opacity:1;stroke-dasharray:none"
         d="m 1300.9368,186.5456 -21.2612,0 0,-12.4025 21.2612,0 z"
         inkscape:connector-curvature="0" />
      <path
         sodipodi:nodetypes="ccccc"
         id="path10016"
         style="fill:none;stroke:#373535;stroke-width:0.70866144;stroke-linecap:butt;stroke-linejoin:miter;stroke-miterlimit:8.22993946;stroke-opacity:1;stroke-dasharray:none"
         d="m 1230.0693,186.5456 -21.2612,0 0,-12.4025 21.2612,0 z"
         inkscape:connector-curvature="0" />
      <path
         sodipodi:nodetypes="ccccc"
         id="path10018"
         style="fill:none;stroke:#373535;stroke-width:0.70866144;stroke-linecap:butt;stroke-linejoin:miter;stroke-miterlimit:8.22993946;stroke-opacity:1;stroke-dasharray:none"
         d="m 1159.2031,186.5456 -21.2613,0 0,-12.4025 21.2613,0 z"
         inkscape:connector-curvature="0" />
      <path
         sodipodi:nodetypes="ccccc"
         id="path10020"
         style="fill:none;stroke:#373535;stroke-width:0.70866144;stroke-linecap:butt;stroke-linejoin:miter;stroke-miterlimit:8.22993946;stroke-opacity:1;stroke-dasharray:none"
         d="m 1088.3356,186.5456 -21.2613,0 0,-12.4025 21.2613,0 z"
         inkscape:connector-curvature="0" />
      <path
         sodipodi:nodetypes="ccccc"
         id="path10022"
         style="fill:none;stroke:#373535;stroke-width:0.70866144;stroke-linecap:butt;stroke-linejoin:miter;stroke-miterlimit:8.22993946;stroke-opacity:1;stroke-dasharray:none"
         d="m 1017.4693,186.5456 -21.26124,0 0,-12.4025 21.26124,0 z"
         inkscape:connector-curvature="0" />
      <path
         inkscape:connector-curvature="0"
         d="m 1265.5004,180.3446 c 0,5.87 -4.7587,10.63 -10.63,10.63 -5.87,0 -10.63,-4.76 -10.63,-10.63 0,-5.87125 4.76,-10.63 10.63,-10.63 5.8713,0 10.63,4.75875 10.63,10.63 z"
         style="fill:none;stroke:#373535;stroke-width:0.70866144;stroke-linecap:butt;stroke-linejoin:miter;stroke-miterlimit:8.22993946;stroke-opacity:1;stroke-dasharray:none"
         id="path10026" />
      <path
         inkscape:connector-curvature="0"
         d="m 1194.6337,180.3446 c 0,5.87 -4.7588,10.63 -10.63,10.63 -5.87,0 -10.63,-4.76 -10.63,-10.63 0,-5.87125 4.76,-10.63 10.63,-10.63 5.8712,0 10.63,4.75875 10.63,10.63 z"
         style="fill:none;stroke:#373535;stroke-width:0.70866144;stroke-linecap:butt;stroke-linejoin:miter;stroke-miterlimit:8.22993946;stroke-opacity:1;stroke-dasharray:none"
         id="path10030" />
      <path
         inkscape:connector-curvature="0"
         d="m 1123.7671,180.3446 c 0,5.87 -4.7588,10.63 -10.63,10.63 -5.87,0 -10.63,-4.76 -10.63,-10.63 0,-5.87125 4.76,-10.63 10.63,-10.63 5.8712,0 10.63,4.75875 10.63,10.63 z"
         style="fill:none;stroke:#373535;stroke-width:0.70866144;stroke-linecap:butt;stroke-linejoin:miter;stroke-miterlimit:8.22993946;stroke-opacity:1;stroke-dasharray:none"
         id="path10034" />
      <path
         inkscape:connector-curvature="0"
         d="m 1052.9003,180.3446 c 0,5.87 -4.7587,10.63 -10.63,10.63 -5.87,0 -10.63,-4.76 -10.63,-10.63 0,-5.87125 4.76,-10.63 10.63,-10.63 5.8713,0 10.63,4.75875 10.63,10.63 z"
         style="fill:none;stroke:#373535;stroke-width:0.70866144;stroke-linecap:butt;stroke-linejoin:miter;stroke-miterlimit:8.22993946;stroke-opacity:1;stroke-dasharray:none"
         id="path10038" />
      <path
         id="path10040"
         style="fill:none;stroke:#373535;stroke-width:0.70866144;stroke-linecap:butt;stroke-linejoin:miter;stroke-miterlimit:8.22993946;stroke-opacity:1;stroke-dasharray:none"
         d="m 977.60931,439.01185 -12.40125,0 0,-21.26125 12.40125,0 0,21.26125 z"
         inkscape:connector-curvature="0" />
      <path
         id="path10042"
         style="fill:none;stroke:#373535;stroke-width:0.70866144;stroke-linecap:butt;stroke-linejoin:miter;stroke-miterlimit:8.22993946;stroke-opacity:1;stroke-dasharray:none"
         d="m 977.60931,226.41185 -12.40125,0 0,-21.26125 12.40125,0 0,21.26125 z"
         inkscape:connector-curvature="0" />
      <path
         id="path10044"
         style="fill:none;stroke:#373535;stroke-width:0.70866144;stroke-linecap:butt;stroke-linejoin:miter;stroke-miterlimit:8.22993946;stroke-opacity:1;stroke-dasharray:none"
         d="m 1048.4756,226.41185 -12.4013,0 0,-21.26125 12.4013,0 0,21.26125 z"
         inkscape:connector-curvature="0" />
      <path
         id="path10046"
         style="fill:none;stroke:#373535;stroke-width:0.70866144;stroke-linecap:butt;stroke-linejoin:miter;stroke-miterlimit:8.22993946;stroke-opacity:1;stroke-dasharray:none"
         d="m 1119.3431,226.41185 -12.4013,0 0,-21.26125 12.4013,0 0,21.26125 z"
         inkscape:connector-curvature="0" />
      <path
         id="path10048"
         style="fill:none;stroke:#373535;stroke-width:0.70866144;stroke-linecap:butt;stroke-linejoin:miter;stroke-miterlimit:8.22993946;stroke-opacity:1;stroke-dasharray:none"
         d="m 1190.2093,226.41185 -12.4012,0 0,-21.26125 12.4012,0 0,21.26125 z"
         inkscape:connector-curvature="0" />
      <path
         id="path10050"
         style="fill:none;stroke:#373535;stroke-width:0.70866144;stroke-linecap:butt;stroke-linejoin:miter;stroke-miterlimit:8.22993946;stroke-opacity:1;stroke-dasharray:none"
         d="m 1261.0756,226.41185 -12.4013,0 0,-21.26125 12.4013,0 0,21.26125 z"
         inkscape:connector-curvature="0" />
      <path
         id="path10052"
         style="fill:none;stroke:#373535;stroke-width:0.70866144;stroke-linecap:butt;stroke-linejoin:miter;stroke-miterlimit:8.22993946;stroke-opacity:1;stroke-dasharray:none"
         d="m 1331.9431,226.41185 -12.4013,0 0,-21.26125 12.4013,0 0,21.26125 z"
         inkscape:connector-curvature="0" />
      <path
         id="path10054"
         style="fill:none;stroke:#373535;stroke-width:0.70866144;stroke-linecap:butt;stroke-linejoin:miter;stroke-miterlimit:8.22993946;stroke-opacity:1;stroke-dasharray:none"
         d="m 1331.9431,297.2781 -12.4013,0 0,-21.26125 12.4013,0 0,21.26125 z"
         inkscape:connector-curvature="0" />
      <path
         id="path10056"
         style="fill:none;stroke:#373535;stroke-width:0.70866144;stroke-linecap:butt;stroke-linejoin:miter;stroke-miterlimit:8.22993946;stroke-opacity:1;stroke-dasharray:none"
         d="m 1331.9431,368.14435 -12.4013,0 0,-21.26125 12.4013,0 0,21.26125 z"
         inkscape:connector-curvature="0" />
      <path
         id="path10058"
         style="fill:none;stroke:#373535;stroke-width:0.70866144;stroke-linecap:butt;stroke-linejoin:miter;stroke-miterlimit:8.22993946;stroke-opacity:1;stroke-dasharray:none"
         d="m 1331.9431,439.01185 -12.4013,0 0,-21.26125 12.4013,0 0,21.26125 z"
         inkscape:connector-curvature="0" />
      <path
         inkscape:connector-curvature="0"
         d="m 1286.6967,283.56248 c 0,2.935 -2.3787,5.315 -5.315,5.315 -2.9362,0 -5.315,-2.38 -5.315,-5.315 0,-2.935 2.3788,-5.315 5.315,-5.315 2.9363,0 5.315,2.38 5.315,5.315 z"
         style="fill:none;stroke:#373535;stroke-width:0.70866144;stroke-linecap:butt;stroke-linejoin:miter;stroke-miterlimit:8.22993946;stroke-opacity:1;stroke-dasharray:none"
         id="path10062" />
      <path
         inkscape:connector-curvature="0"
         d="m 1093.5706,373.56485 c 0,2.93625 -2.38,5.315 -5.315,5.315 -2.935,0 -5.315,-2.37875 -5.315,-5.315 0,-2.935 2.38,-5.315 5.315,-5.315 2.935,0 5.315,2.38 5.315,5.315 z"
         style="fill:none;stroke:#373535;stroke-width:0.70866144;stroke-linecap:butt;stroke-linejoin:miter;stroke-miterlimit:8.22993946;stroke-opacity:1;stroke-dasharray:none"
         id="path10066" />
      <path
         inkscape:connector-curvature="0"
         d="m 1295.3516,401.8986 c 0,9.78375 -7.9325,17.71625 -17.7163,17.71625 -9.785,0 -17.7175,-7.9325 -17.7175,-17.71625 0,-9.78375 7.9325,-17.71625 17.7175,-17.71625 9.7838,0 17.7163,7.9325 17.7163,17.71625 z"
         style="fill:none;stroke:#ff0000;stroke-width:0.70866144;stroke-linecap:butt;stroke-linejoin:miter;stroke-miterlimit:8.22993946;stroke-opacity:1;stroke-dasharray:none"
         id="path10070" />
      <path
         inkscape:connector-curvature="0"
         d="m 1125.2709,277.88122 c 0,9.7825 -7.9325,17.715 -17.7162,17.715 -9.785,0 -17.7175,-7.9325 -17.7175,-17.715 0,-9.785 7.9325,-17.7175 17.7175,-17.7175 9.7837,0 17.7162,7.9325 17.7162,17.7175 z"
         style="fill:none;stroke:#ff0000;stroke-width:0.70866144;stroke-linecap:butt;stroke-linejoin:miter;stroke-miterlimit:8.22993946;stroke-opacity:1;stroke-dasharray:none"
         id="path10074" />
      <path
         id="path10076"
         style="fill:none;stroke:#ff0000;stroke-width:0.70866144;stroke-linecap:butt;stroke-linejoin:miter;stroke-miterlimit:8.22993946;stroke-opacity:1;stroke-dasharray:none"
         d="m 1298.8956,436.06435 -300.93879,0 0,-197.05625 300.93879,0 0,197.05625 z"
         inkscape:connector-curvature="0" />
      <path
         inkscape:connector-curvature="0"
         d="m 1152.6232,382.78485 -4.7675,0 0,-1.6475 c 0,-0.36625 0.016,-0.63 0.051,-0.79125 0.054,-0.22 0.1487,-0.43625 0.285,-0.64875 0.1362,-0.2125 0.3762,-0.4525 0.7175,-0.72125 0.3425,-0.26875 0.835,-0.61 1.48,-1.025 l 2.2337,-1.42125 0,-1.7875 -2.9225,1.86875 c -0.5712,0.37 -1.0475,0.76375 -1.4275,1.17875 -0.1762,0.195 -0.355,0.48125 -0.535,0.85625 -0.1412,-1.03 -0.4737,-1.79125 -0.9962,-2.285 -0.5225,-0.4925 -1.165,-0.73875 -1.9263,-0.73875 -0.5912,0 -1.13,0.14875 -1.6187,0.44625 -0.4888,0.2975 -0.8288,0.69625 -1.0213,1.19375 -0.1937,0.4975 -0.29,1.225 -0.29,2.1825 l 0,4.76125 10.7375,0 0,-1.42125 z m -9.5513,0 0,-3.39875 c 0,-0.795 0.1638,-1.3775 0.4913,-1.74625 0.3275,-0.36875 0.745,-0.55375 1.2525,-0.55375 0.3462,0 0.6675,0.0962 0.9625,0.28625 0.2962,0.19 0.5112,0.46875 0.645,0.835 0.1337,0.36625 0.2012,0.87375 0.2012,1.52375 l 0,3.05375 -3.5525,0 z"
         style="fill:none;stroke:#ff0000;stroke-width:0.70866144;stroke-linecap:butt;stroke-linejoin:miter;stroke-miterlimit:8.22993946;stroke-opacity:1;stroke-dasharray:none"
         id="path10080" />
      <path
         inkscape:connector-curvature="0"
         d="m 1152.6232,367.4741 0,-1.3775 c -0.2975,0.16625 -0.6088,0.2775 -0.9338,0.33375 -0.325,0.0562 -1.1,0.0838 -2.325,0.0838 l -1.7587,0 c -0.585,0 -0.9913,0.0225 -1.215,0.0662 -0.3613,0.0788 -0.6613,0.215 -0.8975,0.41 -0.2375,0.19625 -0.4338,0.50125 -0.59,0.91625 -0.1563,0.415 -0.2338,0.95375 -0.2338,1.61875 0,0.66875 0.091,1.25625 0.2738,1.765 0.1837,0.5075 0.445,0.89625 0.7837,1.16375 0.34,0.26875 0.785,0.4625 1.3375,0.57875 l 0.175,-1.28875 c -0.5512,-0.14125 -0.9362,-0.36 -1.1525,-0.655 -0.2175,-0.29625 -0.3262,-0.75375 -0.3262,-1.37375 0,-0.66375 0.1487,-1.165 0.4462,-1.50125 0.22,-0.24875 0.5988,-0.37375 1.135,-0.37375 0.049,0 0.1638,0.002 0.345,0.007 0.175,0.5025 0.3263,1.28625 0.4538,2.35125 0.064,0.5225 0.13,0.9125 0.1975,1.17125 0.098,0.35125 0.2425,0.6675 0.4325,0.94875 0.19,0.28125 0.4425,0.5075 0.7575,0.68125 0.315,0.17375 0.6637,0.26 1.0437,0.26 0.65,0 1.1838,-0.23 1.6013,-0.68875 0.4175,-0.45875 0.6262,-1.115 0.6262,-1.97 0,-0.5175 -0.086,-1.0025 -0.2562,-1.45375 -0.1713,-0.45125 -0.465,-0.92125 -0.88,-1.41 0.3662,-0.0387 0.6862,-0.1275 0.96,-0.26375 z m -3.42,0.37375 c 0.5812,0 1.02,0.07 1.3175,0.2125 0.3862,0.185 0.69,0.47625 0.9125,0.87125 0.2225,0.395 0.3325,0.8475 0.3325,1.355 0,0.5125 -0.1163,0.9025 -0.3513,1.16875 -0.2337,0.265 -0.5275,0.39875 -0.8787,0.39875 -0.23,0 -0.4388,-0.0612 -0.6263,-0.18375 -0.1875,-0.12125 -0.3312,-0.295 -0.4287,-0.52 -0.098,-0.22375 -0.185,-0.6075 -0.2638,-1.15 -0.1362,-0.95625 -0.3025,-1.67375 -0.4975,-2.1525 l 0.4838,0 z"
         style="fill:none;stroke:#ff0000;stroke-width:0.70866144;stroke-linecap:butt;stroke-linejoin:miter;stroke-miterlimit:8.22993946;stroke-opacity:1;stroke-dasharray:none"
         id="path10084" />
      <path
         inkscape:connector-curvature="0"
         d="m 1152.1692,363.2341 c 0.42,-0.53 0.63,-1.3 0.63,-2.31125 0,-0.61 -0.1063,-1.15625 -0.3188,-1.64 -0.2125,-0.48375 -0.5125,-0.85375 -0.9012,-1.11 -0.3875,-0.25625 -0.8013,-0.38375 -1.2413,-0.38375 -0.4487,0 -0.825,0.105 -1.1275,0.315 -0.3025,0.20875 -0.5337,0.49875 -0.6925,0.8675 -0.1587,0.36875 -0.3625,1.01875 -0.6112,1.95125 -0.1763,0.645 -0.2888,1.03375 -0.3375,1.165 -0.092,0.23 -0.21,0.3975 -0.3513,0.505 -0.1362,0.1075 -0.29,0.16125 -0.4612,0.16125 -0.2688,0 -0.5025,-0.12875 -0.7038,-0.3875 -0.2,-0.25875 -0.3,-0.69125 -0.3,-1.29625 0,-0.51375 0.1125,-0.91 0.3375,-1.19125 0.2238,-0.28 0.5363,-0.45 0.9375,-0.50875 l -0.1762,-1.28875 c -0.5025,0.0825 -0.905,0.23375 -1.205,0.45375 -0.3,0.22 -0.5375,0.56 -0.7138,1.0225 -0.1762,0.46125 -0.2637,0.99625 -0.2637,1.6075 0,0.405 0.053,0.785 0.1575,1.13875 0.105,0.35375 0.2325,0.63375 0.385,0.83875 0.195,0.27375 0.44,0.48875 0.735,0.6475 0.2962,0.15875 0.6175,0.23875 0.9637,0.23875 0.3813,0 0.7288,-0.0962 1.0438,-0.29 0.315,-0.1925 0.5612,-0.47625 0.74,-0.84875 0.1775,-0.37375 0.3887,-1.04375 0.6337,-2.01125 0.18,-0.7175 0.3288,-1.16625 0.4463,-1.3475 0.1712,-0.25875 0.405,-0.3875 0.7025,-0.3875 0.3325,0 0.6225,0.14625 0.8687,0.43875 0.2463,0.2925 0.37,0.7425 0.37,1.3475 0,0.60125 -0.14,1.06875 -0.4175,1.4025 -0.2787,0.335 -0.6787,0.53875 -1.2012,0.6125 l 0.205,1.30375 c 0.825,-0.1475 1.4475,-0.485 1.8675,-1.015 z"
         style="fill:none;stroke:#ff0000;stroke-width:0.70866144;stroke-linecap:butt;stroke-linejoin:miter;stroke-miterlimit:8.22993946;stroke-opacity:1;stroke-dasharray:none"
         id="path10088" />
      <path
         inkscape:connector-curvature="0"
         d="m 1155.6042,354.15323 -3.7863,0 c 0.2825,-0.225 0.5175,-0.51125 0.7025,-0.86 0.1863,-0.35 0.2788,-0.74375 0.2788,-1.18375 0,-0.6 -0.17,-1.1725 -0.5088,-1.7175 -0.34,-0.54375 -0.8275,-0.95875 -1.465,-1.245 -0.6375,-0.285 -1.3537,-0.42875 -2.15,-0.42875 -0.7425,0 -1.425,0.13 -2.0475,0.38875 -0.6225,0.25875 -1.1037,0.6425 -1.4462,1.15 -0.3413,0.5075 -0.5125,1.09375 -0.5125,1.7575 0,0.5075 0.099,0.94 0.2962,1.29625 0.1975,0.35625 0.495,0.67625 0.89,0.96 l -1.01,0 0,1.20125 10.7588,0 0,-1.31875 z m -9.115,-0.52375 c -0.525,-0.4325 -0.7875,-0.92875 -0.7875,-1.49 0,-0.56625 0.2462,-1.05375 0.74,-1.46125 0.4925,-0.4075 1.235,-0.6125 2.2262,-0.6125 1.04,0 1.8075,0.20875 2.3038,0.62625 0.495,0.4175 0.7437,0.92 0.7437,1.50625 0,0.575 -0.24,1.06625 -0.7187,1.47125 -0.4775,0.405 -1.2175,0.60875 -2.2188,0.60875 -1.0012,0 -1.7637,-0.21625 -2.2887,-0.64875 z"
         style="fill:none;stroke:#ff0000;stroke-width:0.70866144;stroke-linecap:butt;stroke-linejoin:miter;stroke-miterlimit:8.22993946;stroke-opacity:1;stroke-dasharray:none"
         id="path10092" />
      <path
         inkscape:connector-curvature="0"
         d="m 1151.6491,345.16335 c 0.7662,-0.5225 1.15,-1.2425 1.15,-2.16125 0,-0.9225 -0.3638,-1.71375 -1.0913,-2.3725 -0.7275,-0.65875 -1.7575,-0.98875 -3.0912,-0.98875 -0.5613,0 -1.0888,0.0787 -1.5813,0.235 -0.4937,0.15625 -0.915,0.37125 -1.2637,0.6475 -0.3488,0.27625 -0.62,0.6275 -0.8138,1.055 -0.1925,0.4275 -0.2887,0.88 -0.2887,1.35875 0,0.86375 0.3487,1.575 1.0475,2.13125 l -3.8313,0 0,1.31875 10.7375,0 0,-1.22375 -0.9737,0 z m -5.145,-0.615 c -0.5013,-0.42 -0.7513,-0.91875 -0.7513,-1.495 0,-0.57125 0.2425,-1.0575 0.725,-1.46 0.4838,-0.40375 1.2338,-0.605 2.2488,-0.605 0.9912,0 1.7375,0.21 2.2375,0.63 0.5012,0.42 0.7512,0.9175 0.7512,1.49375 0,0.70875 -0.34,1.27 -1.0187,1.685 -0.415,0.25375 -1.0888,0.38125 -2.0213,0.38125 -0.9475,0 -1.6712,-0.21 -2.1712,-0.63 z"
         style="fill:none;stroke:#ff0000;stroke-width:0.70866144;stroke-linecap:butt;stroke-linejoin:miter;stroke-miterlimit:8.22993946;stroke-opacity:1;stroke-dasharray:none"
         id="path10096" />
      <path
         inkscape:connector-curvature="0"
         d="m 1151.3342,332.7751 c 0.2537,0.34125 0.3812,0.755 0.3812,1.2375 0,0.65 -0.2275,1.19125 -0.6812,1.62625 -0.455,0.435 -1.1088,0.67625 -1.9638,0.725 l 0,-5.80125 c -0.1562,-0.004 -0.2725,-0.006 -0.3512,-0.006 -1.2838,0 -2.28,0.32875 -2.9875,0.98875 -0.7088,0.65875 -1.0625,1.50875 -1.0625,2.54875 0,1.07375 0.3612,1.9475 1.0837,2.62125 0.7225,0.67375 1.7388,1.01125 3.0475,1.01125 1.2638,0 2.2475,-0.33375 2.9475,-1 0.7013,-0.66625 1.0513,-1.56875 1.0513,-2.70625 0,-0.90375 -0.22,-1.645 -0.6588,-2.22625 -0.44,-0.58125 -1.0575,-0.97875 -1.8537,-1.19375 l -0.1688,1.3625 c 0.5575,0.2 0.9625,0.47125 1.2163,0.8125 z m -4.9738,2.83125 c -0.405,-0.4125 -0.6075,-0.9225 -0.6075,-1.5275 0,-0.66875 0.2538,-1.21375 0.7625,-1.63375 0.3263,-0.2725 0.8175,-0.43875 1.4713,-0.4975 l 0,4.34375 c -0.6788,-0.045 -1.22,-0.2725 -1.6263,-0.685 z"
         style="fill:none;stroke:#ff0000;stroke-width:0.70866144;stroke-linecap:butt;stroke-linejoin:miter;stroke-miterlimit:8.22993946;stroke-opacity:1;stroke-dasharray:none"
         id="path10100" />
      <path
         inkscape:connector-curvature="0"
         d="m 1152.6232,326.89073 -4.0725,0 c -0.5563,0 -1.0688,-0.0737 -1.5375,-0.22 -0.3075,-0.0975 -0.5488,-0.26125 -0.7213,-0.49 -0.1737,-0.23 -0.26,-0.48875 -0.26,-0.77625 0,-0.3225 0.095,-0.645 0.285,-0.9675 l -1.2225,-0.45375 c -0.2837,0.45875 -0.425,0.91 -0.425,1.355 0,0.3075 0.088,0.58875 0.2638,0.84625 0.175,0.25625 0.5387,0.535 1.0912,0.8375 l -1.18,0 0,1.1875 7.7788,0 0,-1.31875 z"
         style="fill:none;stroke:#ff0000;stroke-width:0.70866144;stroke-linecap:butt;stroke-linejoin:miter;stroke-miterlimit:8.22993946;stroke-opacity:1;stroke-dasharray:none"
         id="path10104" />
      <path
         inkscape:connector-curvature="0"
         d="m 1152.6232,321.14548 -4.0725,0 c -0.5563,0 -1.0688,-0.0737 -1.5375,-0.22 -0.3075,-0.0975 -0.5488,-0.26125 -0.7213,-0.49 -0.1737,-0.23 -0.26,-0.48875 -0.26,-0.77625 0,-0.3225 0.095,-0.645 0.285,-0.9675 l -1.2225,-0.45375 c -0.2837,0.45875 -0.425,0.91 -0.425,1.355 0,0.3075 0.088,0.58875 0.2638,0.84625 0.175,0.25625 0.5387,0.535 1.0912,0.8375 l -1.18,0 0,1.1875 7.7788,0 0,-1.31875 z"
         style="fill:none;stroke:#ff0000;stroke-width:0.70866144;stroke-linecap:butt;stroke-linejoin:miter;stroke-miterlimit:8.22993946;stroke-opacity:1;stroke-dasharray:none"
         id="path10108" />
      <path
         inkscape:connector-curvature="0"
         d="m 1155.7799,315.91348 c 0,-0.42 -0.1012,-0.78125 -0.3037,-1.08375 -0.2025,-0.3025 -0.5213,-0.57125 -0.9563,-0.80625 -0.3225,-0.175 -0.91,-0.4225 -1.765,-0.74 l -7.91,-2.95875 0,1.31875 4.5338,1.6625 c 0.5762,0.21 1.1662,0.39125 1.7725,0.5425 -0.63,0.165 -1.2313,0.35375 -1.8025,0.56375 l -4.5038,1.61875 0,1.42 7.7925,-2.95125 c 0.1425,0.0537 0.25,0.0925 0.3225,0.1175 0.5225,0.185 0.85,0.32 0.9813,0.4025 0.1762,0.1125 0.3125,0.25625 0.41,0.4325 0.099,0.175 0.1475,0.41 0.1475,0.7025 0,0.215 -0.04,0.46625 -0.1175,0.755 l 1.2375,-0.14625 c 0.1075,-0.3125 0.1612,-0.59625 0.1612,-0.85 z"
         style="fill:none;stroke:#ff0000;stroke-width:0.70866144;stroke-linecap:butt;stroke-linejoin:miter;stroke-miterlimit:8.22993946;stroke-opacity:1;stroke-dasharray:none"
         id="path10112" />
      <path
         inkscape:connector-curvature="0"
         d="m 1152.6232,301.94748 -4.365,0 0,-2.75375 c 0,-1.51875 -0.3163,-2.56875 -0.9488,-3.15 -0.6325,-0.58125 -1.405,-0.87125 -2.3175,-0.87125 -0.5325,0 -1.0212,0.10875 -1.465,0.32625 -0.445,0.2175 -0.79,0.50375 -1.0362,0.86 -0.2475,0.35625 -0.415,0.79875 -0.5025,1.32625 -0.069,0.37625 -0.1025,0.92 -0.1025,1.6325 l 0,4.05125 10.7375,0 0,-1.42125 z m -9.47,0 0,-2.74625 c 0,-0.645 0.031,-1.08625 0.095,-1.32625 0.1025,-0.37125 0.3137,-0.67 0.6337,-0.8975 0.32,-0.22625 0.7038,-0.34 1.1538,-0.34 0.62,0 1.1012,0.1925 1.4425,0.57875 0.3412,0.385 0.5125,1.0375 0.5125,1.955 l 0,2.77625 -3.8375,0 z"
         style="fill:none;stroke:#ff0000;stroke-width:0.70866144;stroke-linecap:butt;stroke-linejoin:miter;stroke-miterlimit:8.22993946;stroke-opacity:1;stroke-dasharray:none"
         id="path10116" />
      <path
         id="path10118"
         style="fill:none;stroke:#ff0000;stroke-width:0.70866144;stroke-linecap:butt;stroke-linejoin:miter;stroke-miterlimit:8.22993946;stroke-opacity:1;stroke-dasharray:none"
         d="m 1143.4018,291.4556 -1.5162,0 0,1.31875 1.5162,0 0,-1.31875 z m 9.2213,0 -7.7788,0 0,1.31875 7.7788,0 0,-1.31875 z"
         inkscape:connector-curvature="0" />
      <path
         inkscape:connector-curvature="0"
         d="m 1010.3876,419.0336 c 2.935,0 5.315,2.37875 5.315,5.315 0,2.93625 -2.38,5.315 -5.315,5.315 -2.935,0 -5.315,-2.37875 -5.315,-5.315 0,-2.93625 2.38,-5.315 5.315,-5.315 z"
         style="fill:none;stroke:#373535;stroke-width:0.70866144;stroke-linecap:butt;stroke-linejoin:miter;stroke-miterlimit:8.22993946;stroke-opacity:1;stroke-dasharray:none"
         id="path10122" />
      <path
         inkscape:connector-curvature="0"
         d="m 1010.3876,245.4106 c 2.935,0 5.315,2.37875 5.315,5.315 0,2.93625 -2.38,5.315 -5.315,5.315 -2.935,0 -5.315,-2.37875 -5.315,-5.315 0,-2.93625 2.38,-5.315 5.315,-5.315 z"
         style="fill:none;stroke:#373535;stroke-width:0.70866144;stroke-linecap:butt;stroke-linejoin:miter;stroke-miterlimit:8.22993946;stroke-opacity:1;stroke-dasharray:none"
         id="path10126" />
      <path
         inkscape:connector-curvature="0"
         d="m 1215.9008,419.0336 c 2.9375,0 5.315,2.37875 5.315,5.315 0,2.93625 -2.3775,5.315 -5.315,5.315 -2.935,0 -5.315,-2.37875 -5.315,-5.315 0,-2.93625 2.38,-5.315 5.315,-5.315 z"
         style="fill:none;stroke:#373535;stroke-width:0.70866144;stroke-linecap:butt;stroke-linejoin:miter;stroke-miterlimit:8.22993946;stroke-opacity:1;stroke-dasharray:none"
         id="path10130" />
      <path
         inkscape:connector-curvature="0"
         d="m 1215.9008,245.4106 c 2.9375,0 5.315,2.37875 5.315,5.315 0,2.93625 -2.3775,5.315 -5.315,5.315 -2.935,0 -5.315,-2.37875 -5.315,-5.315 0,-2.93625 2.38,-5.315 5.315,-5.315 z"
         style="fill:none;stroke:#373535;stroke-width:0.70866144;stroke-linecap:butt;stroke-linejoin:miter;stroke-miterlimit:8.22993946;stroke-opacity:1;stroke-dasharray:none"
         id="path10134" />
      <path
         sodipodi:nodetypes="sccscccccccscccs"
         inkscape:connector-curvature="0"
         id="path10158"
         d="m 948.37431,173.9093 c 0,-9.8175 7.90625,-17.72 17.72,-17.72 l 0,-0.0487 364.95629,0.001 c 9.815,3e-5 17.715,7.90375 17.715,17.72 l 0,74.4125 0,141.72875 -10e-4,0 0,77.955 c 0,9.8175 -7.905,17.72 -17.72,17.72 l 0,0.0487 -364.95629,-10e-4 c -9.81375,0 -17.715,-7.9025 -17.715,-17.72 l -0.002,-42.52375 0,-26.64 z"
         style="fill:none;stroke:#373535;stroke-width:0.70866144;stroke-linecap:butt;stroke-linejoin:miter;stroke-miterlimit:8.22993946;stroke-opacity:1;stroke-dasharray:none" />
      <path
         inkscape:connector-curvature="0"
         d="m 1184.2004,386.4836 c 2.935,0 5.315,2.37875 5.315,5.31625 0,2.935 -2.38,5.315 -5.315,5.315 -2.9362,0 -5.315,-2.38 -5.315,-5.315 0,-2.9375 2.3788,-5.31625 5.315,-5.31625 z"
         style="fill:none;stroke:#292929;stroke-width:0.70866144;stroke-linecap:butt;stroke-linejoin:miter;stroke-miterlimit:8.22993946;stroke-opacity:1;stroke-dasharray:none"
         id="path10174" />
      <path
         inkscape:connector-curvature="0"
         d="m 1113.3331,386.4836 c 2.9362,0 5.315,2.37875 5.315,5.31625 0,2.935 -2.3788,5.315 -5.315,5.315 -2.9363,0 -5.315,-2.38 -5.315,-5.315 0,-2.9375 2.3787,-5.31625 5.315,-5.31625 z"
         style="fill:none;stroke:#292929;stroke-width:0.70866144;stroke-linecap:butt;stroke-linejoin:miter;stroke-miterlimit:8.22993946;stroke-opacity:1;stroke-dasharray:none"
         id="path10178" />
      <path
         inkscape:connector-curvature="0"
         d="m 1113.3331,315.61685 c 2.9362,0 5.315,2.37875 5.315,5.31625 0,2.935 -2.3788,5.315 -5.315,5.315 -2.9363,0 -5.315,-2.38 -5.315,-5.315 0,-2.9375 2.3787,-5.31625 5.315,-5.31625 z"
         style="fill:none;stroke:#292929;stroke-width:0.70866144;stroke-linecap:butt;stroke-linejoin:miter;stroke-miterlimit:8.22993946;stroke-opacity:1;stroke-dasharray:none"
         id="path10182" />
      <path
         inkscape:connector-curvature="0"
         d="m 1184.2004,315.61685 c 2.935,0 5.315,2.37875 5.315,5.31625 0,2.935 -2.38,5.315 -5.315,5.315 -2.9362,0 -5.315,-2.38 -5.315,-5.315 0,-2.9375 2.3788,-5.31625 5.315,-5.31625 z"
         style="fill:none;stroke:#292929;stroke-width:0.70866144;stroke-linecap:butt;stroke-linejoin:miter;stroke-miterlimit:8.22993946;stroke-opacity:1;stroke-dasharray:none"
         id="path10186" />
      <path
         id="path12252"
         style="fill:none;stroke:#373535;stroke-width:0.70866144;stroke-linecap:butt;stroke-linejoin:miter;stroke-miterlimit:8.22993946;stroke-opacity:1;stroke-dasharray:none"
         d="m 982.03606,322.07485 c 0,5.87125 -4.75875,10.63 -10.63,10.63 -5.87,0 -10.63,-4.75875 -10.63,-10.63 0,-5.87125 4.76,-10.63 10.63,-10.63 5.87125,0 10.63,4.75875 10.63,10.63 z"
         inkscape:connector-curvature="0" />
      <path
         inkscape:connector-curvature="0"
         d="m 977.60931,297.27785 -12.40125,0 0,-21.26125 12.40125,0 0,21.26125 z"
         style="fill:none;stroke:#373535;stroke-width:0.70866144;stroke-linecap:butt;stroke-linejoin:miter;stroke-miterlimit:8.22993946;stroke-opacity:1;stroke-dasharray:none"
         id="path12254" />
      <path
         inkscape:connector-curvature="0"
         d="m 982.03606,392.94085 c 0,5.87125 -4.75875,10.63 -10.63,10.63 -5.87,0 -10.63,-4.75875 -10.63,-10.63 0,-5.87125 4.76,-10.63 10.63,-10.63 5.87125,0 10.63,4.75875 10.63,10.63 z"
         style="fill:none;stroke:#373535;stroke-width:0.70866144;stroke-linecap:butt;stroke-linejoin:miter;stroke-miterlimit:8.22993946;stroke-opacity:1;stroke-dasharray:none"
         id="path12256" />
      <path
         id="path12258"
         style="fill:none;stroke:#373535;stroke-width:0.70866144;stroke-linecap:butt;stroke-linejoin:miter;stroke-miterlimit:8.22993946;stroke-opacity:1;stroke-dasharray:none"
         d="m 977.60931,368.14385 -12.40125,0 0,-21.26125 12.40125,0 0,21.26125 z"
         inkscape:connector-curvature="0" />
    </g>
    <rect
       style="fill:none;stroke:#000000;stroke-width:0.17716534;stroke-miterlimit:4;stroke-opacity:1;stroke-dasharray:none"
       id="rect3831"
       width="35.433071"
       height="35.433071"
       x="54.167606"
       y="585.22565" />
    <text
       xml:space="preserve"
       style="font-size:40px;font-style:normal;font-weight:normal;line-height:125%;letter-spacing:0px;word-spacing:0px;fill:#000000;fill-opacity:1;stroke:none;font-family:Sans"
       x="103.65069"
       y="592.19623"
       id="text3841"
       sodipodi:linespacing="125%"><tspan
         sodipodi:role="line"
         id="tspan3843"
         x="103.65069"
         y="592.19623"
         style="font-size:14px">scale: square = 10mm</tspan><tspan
         sodipodi:role="line"
         x="103.65069"
         y="609.69623"
         style="font-size:14px"
         id="tspan3845">key:</tspan><tspan
         sodipodi:role="line"
         x="103.65069"
         y="627.19623"
         style="font-size:14px"
         id="tspan3847">red = vector etch</tspan><tspan
         sodipodi:role="line"
         x="103.65069"
         y="644.69623"
         style="font-size:14px"
         id="tspan3849">black = cut</tspan><tspan
         sodipodi:role="line"
         x="103.65069"
         y="662.19623"
         style="font-size:14px"
         id="tspan3851" /><tspan
         sodipodi:role="line"
         x="103.65069"
         y="679.69623"
         style="font-size:14px"
         id="tspan4366">recommended stock  = 3mm clear colourless acrylic</tspan><tspan
         sodipodi:role="line"
         x="103.65069"
         y="697.19623"
         style="font-size:14px"
         id="tspan4276" /><tspan
         sodipodi:role="line"
         x="103.65069"
         y="714.69623"
         style="font-size:14px"
         id="tspan4278">Additional hardware required:</tspan><tspan
         sodipodi:role="line"
         x="103.65069"
         y="732.19623"
         style="font-size:14px"
         id="tspan4280" /><tspan
         sodipodi:role="line"
         x="103.65069"
         y="749.69623"
         style="font-size:14px"
         id="tspan5966">M3 x 30mm machine screw x2</tspan><tspan
         sodipodi:role="line"
         x="103.65069"
         y="767.19623"
         style="font-size:14px"
         id="tspan5968">M3 nut x2</tspan><tspan
         sodipodi:role="line"
         x="103.65069"
         y="784.69623"
         style="font-size:14px"
         id="tspan5970">M3 x 12mm nylone machine screw x4</tspan><tspan
         sodipodi:role="line"
         x="103.65069"
         y="802.19623"
         style="font-size:14px"
         id="tspan5972">M3 nylon nut x4</tspan><tspan
         sodipodi:role="line"
         x="103.65069"
         y="819.69623"
         style="font-size:14px"
         id="tspan4282">M3 x 3mm nylon spacer x4</tspan><tspan
         sodipodi:role="line"
         x="103.65069"
         y="837.19623"
         style="font-size:14px"
         id="tspan4288">M2 x 12mm machine screw x4</tspan><tspan
         sodipodi:role="line"
         x="103.65069"
         y="854.69623"
         style="font-size:14px"
         id="tspan5960">M2 nut x8</tspan><tspan
         sodipodi:role="line"
         x="103.65069"
         y="872.19623"
         style="font-size:14px"
         id="tspan5976">self adhesive N42 magnet x10</tspan><tspan
         sodipodi:role="line"
         x="103.65069"
         y="889.69623"
         style="font-size:14px"
         id="tspan4290" /></text>
    <text
       xml:space="preserve"
       style="font-size:40px;font-style:normal;font-weight:normal;line-height:125%;letter-spacing:0px;word-spacing:0px;fill:#000000;fill-opacity:1;stroke:none;font-family:Sans"
       x="39.330585"
       y="1009.7681"
       id="text4412"
       sodipodi:linespacing="125%"><tspan
         sodipodi:role="line"
         id="tspan4414"
         x="39.330585"
         y="1009.7681">Files for Raspberry Pi camera mount with wide angle lens holder, and basic OOBB-compatible Pi plate</tspan></text>
    <text
       xml:space="preserve"
       style="font-size:40px;font-style:normal;font-weight:normal;line-height:125%;letter-spacing:0px;word-spacing:0px;fill:#000000;fill-opacity:1;stroke:none;font-family:Sans"
       x="1234.465"
       y="902.30847"
       id="text4412-9"
       sodipodi:linespacing="125%"><tspan
         sodipodi:role="line"
         id="tspan4414-7"
         x="1234.465"
         y="902.30847">Sheet stock: 3mm clear colourless acrylic</tspan></text>
    <text
       xml:space="preserve"
       style="font-size:40px;font-style:normal;font-weight:normal;line-height:125%;letter-spacing:0px;word-spacing:0px;fill:#000000;fill-opacity:1;stroke:none;font-family:Sans"
       x="1377.1755"
       y="57.285385"
       id="text4412-9-3"
       sodipodi:linespacing="125%"><tspan
         sodipodi:role="line"
         id="tspan4414-7-6"
         x="1377.1755"
         y="57.285385">Pi mounting plate</tspan></text>
    <text
       xml:space="preserve"
       style="font-size:40px;font-style:normal;font-weight:normal;line-height:125%;letter-spacing:0px;word-spacing:0px;fill:#000000;fill-opacity:1;stroke:none;font-family:Sans"
       x="160.95175"
       y="-197.27307"
       id="text4412-9-7"
       sodipodi:linespacing="125%"><tspan
         sodipodi:role="line"
         id="tspan4414-7-5"
         x="160.95175"
         y="-197.27307">Camera + wide angle lens holder</tspan></text>
    <path
       style="fill:none;stroke:#0000ff;stroke-width:1px;stroke-linecap:butt;stroke-linejoin:miter;stroke-opacity:1"
       d="M 884.89363,211.20062 515.1778,239.48489 525.27932,224.3326"
       id="path5946"
       inkscape:connector-curvature="0"
       transform="translate(0,-364.96061)" />
    <path
       style="fill:none;stroke:#0000ff;stroke-width:1px;stroke-linecap:butt;stroke-linejoin:miter;stroke-opacity:1"
       d="m 515.1778,238.47473 12.12183,9.09138"
       id="path5948"
       inkscape:connector-curvature="0"
       transform="translate(0,-364.96061)" />
    <text
       xml:space="preserve"
       style="font-size:40px;font-style:normal;font-weight:normal;line-height:125%;letter-spacing:0px;word-spacing:0px;fill:#000000;fill-opacity:1;stroke:none;font-family:Sans"
       x="897.14282"
       y="-161.92357"
       id="text5950"
       sodipodi:linespacing="125%"><tspan
         sodipodi:role="line"
         id="tspan5952"
         x="897.14282"
         y="-161.92357"
         style="font-size:20px">heat along this red line</tspan><tspan
         sodipodi:role="line"
         x="897.14282"
         y="-136.92357"
         id="tspan5954"
         style="font-size:20px">and bend to approx 135 degrees</tspan></text>
  </g>
</svg>
